<svg xmlns="http://www.w3.org/2000/svg" width="173.692" height="195.654" viewBox="0 0 173.692 195.654"> <g id="Group_60" data-name="Group 60" transform="translate(-971.954 -2039.88)"> <path id="Path_9" data-name="Path 9" d="M302.864,112.037l-62.629,66.936-.965-.908,61.748-66-61.13-61.13.939-.939,23.887,23.887Z" transform="translate(805.19 1990.94)" fill="#fff" stroke="#fff" stroke-width="1.5"/> <path id="Path_10" data-name="Path 10" d="M167.52,262.046l62.629-66.936.965.908-61.748,66,61.13,61.13-.939.939L205.67,300.2Z" transform="translate(845.019 1910.391)" fill="#fff" stroke="#fff" stroke-width="1.5"/> <path id="Path_11" data-name="Path 11" d="M163.456,246.052a86.6,86.6,0,1,1,86.6-86.6A86.694,86.694,0,0,1,163.456,246.052Zm0-171.7a85.1,85.1,0,1,0,85.1,85.1A85.2,85.2,0,0,0,163.456,74.355Z" transform="translate(895.344 1978.251)" fill="#fff" stroke="#fff" stroke-width="0.5"/> </g> </svg>