<svg xmlns="http://www.w3.org/2000/svg" viewBox="0 0 552 545"><path d="M390.58 184.71 244.89 340.42l-2.25-2.11 143.65-153.53L244.08 42.57l2.18-2.18 55.57 55.57 88.75 88.75z"/><path d="m245.03 344.82-6.78-6.36 143.72-153.61L239.69 42.57l6.57-6.57L394.9 184.64 245.03 344.82z"/><path d="m168.39 346.29 145.69-155.71 2.25 2.11-143.66 153.53 142.21 142.21-2.18 2.18-55.56-55.57-88.75-88.75z"/><path d="M312.71 495 164.07 346.36l149.86-160.18 6.78 6.36-143.72 153.61 142.29 142.28-6.57 6.57z"/><path d="M276 466.4c-110.78 0-200.9-90.13-200.9-200.9S165.22 64.6 276 64.6s200.9 90.13 200.9 200.9S386.77 466.4 276 466.4Zm0-398.33c-108.86 0-197.43 88.57-197.43 197.43S167.14 462.93 276 462.93s197.43-88.57 197.43-197.43S384.86 68.07 276 68.07Z"/><path d="M276 469.5c-112.49 0-204-91.51-204-204s91.51-204 204-204 204 91.51 204 204-91.51 204-204 204Zm0-398.33c-107.16 0-194.33 87.18-194.33 194.33S168.85 459.83 276 459.83s194.33-87.18 194.33-194.33S383.15 71.17 276 71.17Z"/></svg>