<svg xmlns="http://www.w3.org/2000/svg" viewBox="0 0 552 545"><path d="M458.48 436.84H116.83V95.19h341.65v341.65Zm-338.16-3.49h334.67V98.68H120.32v334.67Z"/><path d="M461.39 439.74H113.92V92.28h347.47v347.46Zm-338.16-9.3h328.86V101.58H123.23v328.86Z"/><path d="M172.59 267.86c-64.47 0-116.92-52.45-116.92-116.92S108.12 34.03 172.59 34.03 289.5 86.48 289.5 150.95s-52.45 116.92-116.91 116.92Zm0-230.34c-62.54 0-113.43 50.88-113.43 113.43s50.88 113.43 113.43 113.43 113.43-50.88 113.43-113.43S235.14 37.52 172.59 37.52Z"/><path d="M172.59 270.77c-66.07 0-119.82-53.75-119.82-119.82S106.52 31.12 172.59 31.12s119.82 53.75 119.82 119.82-53.75 119.82-119.82 119.82Zm0-230.34c-60.94 0-110.52 49.58-110.52 110.52s49.58 110.52 110.52 110.52 110.52-49.58 110.52-110.52S233.53 40.43 172.59 40.43Z"/><path d="M505.3 525.24 30.19 354.63l2.31-1.95 383-324.21 89.8 496.77ZM37.05 353.39l463.74 166.53-87.64-484.88-376.1 318.35Z"/><path d="M509.06 529.68 24.46 355.66l6.15-5.2L417.47 23l91.59 506.68ZM42.77 352.35l454.27 163.13-85.86-474.97L42.77 352.35Z"/></svg>