<svg xmlns="http://www.w3.org/2000/svg" width="173.692" height="195.654"><g data-name="Group 60" fill="#fff" stroke="#fff"><path data-name="Path 9" d="m136.1 63.097-62.629 66.936-.965-.908 61.748-66-61.13-61.13.939-.939L97.95 24.943Z" stroke-width="1.5"/><path data-name="Path 10" d="m40.585 132.557 62.629-66.936.965.908-61.748 66 61.13 61.13-.939.939-23.887-23.887Z" stroke-width="1.5"/><path data-name="Path 11" d="M86.846 184.423a86.6 86.6 0 1 1 86.6-86.6 86.694 86.694 0 0 1-86.6 86.6Zm0-171.7a85.1 85.1 0 1 0 85.1 85.1 85.2 85.2 0 0 0-85.1-85.097Z" stroke-width=".5"/></g></svg>